<svg id="Layer_1" xmlns="http://www.w3.org/2000/svg" viewBox="273.8 243.1 99.2 99.2"><style>.st0{fill:url(#SVGID_1_)}.st0,.st1,.st2,.st3{stroke:#fff;stroke-width:.75;stroke-miterlimit:10}.st1{fill:url(#SVGID_2_)}.st2{fill:url(#SVGID_3_)}.st3{fill:url(#SVGID_4_)}</style><path d="M421.2 187.6c0 .1-.1.2-.1.3 0-.1 0-.2.1-.3z"/><linearGradient id="SVGID_1_" gradientUnits="userSpaceOnUse" x1="332.856" y1="140.149" x2="332.856" y2="88.1" gradientTransform="translate(0 202.16)"><stop offset="0" stop-color="#ffdc47"/><stop offset="1" stop-color="#e30f13"/></linearGradient><path class="st0" d="M325 342.3c11-.4 21-4.3 29-10.6 3.5-6 5.5-13 5.2-20.4-.3-7.9-2.9-15.1-7.3-21-5.6 1.1-10.1 5.1-12 10.2-.3.7-.5 1.5-.7 2.2-2.5 7.5-7.3 14-13.6 18.6.2.9.3 1.7.3 2.6.2 5.7-2.6 10.9-7 13.9-1.8 1.3-6.2 2.7-12.4 1.6 5.9 2.1 12.1 3.2 18.5 2.9z"/><linearGradient id="SVGID_2_" gradientUnits="userSpaceOnUse" x1="320.582" y1="86.402" x2="373.015" y2="86.402" gradientTransform="translate(0 202.16)"><stop offset=".414" stop-color="#9b388c"/><stop offset="1" stop-color="#c11919"/></linearGradient><path class="st1" d="M340 246c-6.1-1.1-10.5.3-12.4 1.6-4.4 3-7.2 8.2-7 13.9 0 .9.1 1.8.3 2.6 1.1 5.6 5.1 10.1 10.2 12 .7.3 1.5.5 2.2.6 7.5 2.5 14 7.3 18.6 13.5 4.3 5.9 7 13.1 7.3 21 .3 7.4-1.7 14.4-5.2 20.4 7.3-5.7 12.9-13.5 16.1-22.3 2-5.7 3.1-11.9 2.9-18.3-.7-20.9-14.3-38.3-33-45z"/><linearGradient id="SVGID_3_" gradientUnits="userSpaceOnUse" x1="313.777" y1="93" x2="313.777" y2="40.977" gradientTransform="translate(0 202.16)"><stop offset="0" stop-color="#dcdb00"/><stop offset="1" stop-color="#4d9e34"/></linearGradient><path class="st2" d="M294.8 295.2c5.6-1.1 10.1-5.1 12-10.2.3-.7.5-1.5.6-2.2 2.5-7.5 7.3-14 13.6-18.6-.2-.9-.3-1.7-.3-2.6-.2-5.7 2.6-10.9 7-13.9 1.8-1.3 6.2-2.7 12.4-1.6-5.7-2-11.9-3.1-18.4-2.9-11 .4-21 4.3-29 10.6-3.5 6-5.5 13-5.2 20.4.3 7.9 3 15.1 7.3 21z"/><linearGradient id="SVGID_4_" gradientUnits="userSpaceOnUse" x1="299.985" y1="137.697" x2="299.985" y2="51.543" gradientTransform="translate(0 202.16)"><stop offset="0" stop-color="#b0d0ef"/><stop offset="1" stop-color="#283385"/></linearGradient><path class="st3" d="M306.8 339.5c6.1 1.1 10.5-.3 12.4-1.6 4.4-3 7.2-8.2 7-13.9 0-.9-.1-1.8-.3-2.6-1.1-5.6-5.1-10.1-10.2-12-.7-.3-1.5-.5-2.2-.6-7.5-2.5-14-7.3-18.6-13.5-4.3-5.9-7-13.1-7.3-21-.3-7.4 1.7-14.4 5.2-20.4-7.3 5.7-12.9 13.5-16.1 22.3-2 5.7-3.1 11.9-2.9 18.3.8 20.9 14.4 38.4 33 45z"/></svg>