<?xml version="1.0" encoding="utf-8"?>
<!-- Generator: Adobe Illustrator 19.0.0, SVG Export Plug-In . SVG Version: 6.00 Build 0)  -->
<svg version="1.1" id="Layer_1" xmlns="http://www.w3.org/2000/svg" xmlns:xlink="http://www.w3.org/1999/xlink" x="0px" y="0px"
	 viewBox="273.8 243.1 99.2 99.2" style="enable-background:new 273.8 243.1 99.2 99.2;" xml:space="preserve">
<style type="text/css">
	.st0{fill:url(#SVGID_1_);stroke:#FFFFFF;stroke-width:0.75;stroke-miterlimit:10;}
	.st1{fill:url(#SVGID_2_);stroke:#FFFFFF;stroke-width:0.75;stroke-miterlimit:10;}
	.st2{fill:url(#SVGID_3_);stroke:#FFFFFF;stroke-width:0.75;stroke-miterlimit:10;}
	.st3{fill:url(#SVGID_4_);stroke:#FFFFFF;stroke-width:0.75;stroke-miterlimit:10;}
</style>
<path d="M421.2,187.6c0,0.1-0.1,0.2-0.1,0.3C421.1,187.8,421.1,187.7,421.2,187.6L421.2,187.6z"/>
<g>
	
		<linearGradient id="SVGID_1_" gradientUnits="userSpaceOnUse" x1="332.8564" y1="140.1488" x2="332.8564" y2="88.1001" gradientTransform="matrix(1 0 0 1 0 202.1599)">
		<stop  offset="0" style="stop-color:#FFDC47"/>
		<stop  offset="1" style="stop-color:#E30F13"/>
	</linearGradient>
	<path class="st0" d="M325,342.3c11-0.4,21-4.3,29-10.6c3.5-6,5.5-13,5.2-20.4c-0.3-7.9-2.9-15.1-7.3-21c-5.6,1.1-10.1,5.1-12,10.2
		c-0.3,0.7-0.5,1.5-0.7,2.2c-2.5,7.5-7.3,14-13.6,18.6c0.2,0.9,0.3,1.7,0.3,2.6c0.2,5.7-2.6,10.9-7,13.9c-1.8,1.3-6.2,2.7-12.4,1.6
		C312.4,341.5,318.6,342.6,325,342.3z"/>
	
		<linearGradient id="SVGID_2_" gradientUnits="userSpaceOnUse" x1="320.5815" y1="86.4017" x2="373.0148" y2="86.4017" gradientTransform="matrix(1 0 0 1 0 202.1599)">
		<stop  offset="0.4138" style="stop-color:#9B388C"/>
		<stop  offset="1" style="stop-color:#C11919"/>
	</linearGradient>
	<path class="st1" d="M340,246c-6.1-1.1-10.5,0.3-12.4,1.6c-4.4,3-7.2,8.2-7,13.9c0,0.9,0.1,1.8,0.3,2.6c1.1,5.6,5.1,10.1,10.2,12
		c0.7,0.3,1.5,0.5,2.2,0.6c7.5,2.5,14,7.3,18.6,13.5c4.3,5.9,7,13.1,7.3,21c0.3,7.4-1.7,14.4-5.2,20.4c7.3-5.7,12.9-13.5,16.1-22.3
		c2-5.7,3.1-11.9,2.9-18.3C372.3,270.1,358.7,252.7,340,246z"/>
	
		<linearGradient id="SVGID_3_" gradientUnits="userSpaceOnUse" x1="313.7768" y1="93.0001" x2="313.7768" y2="40.9768" gradientTransform="matrix(1 0 0 1 0 202.1599)">
		<stop  offset="0" style="stop-color:#DCDB00"/>
		<stop  offset="1" style="stop-color:#4D9E34"/>
	</linearGradient>
	<path class="st2" d="M294.8,295.2c5.6-1.1,10.1-5.1,12-10.2c0.3-0.7,0.5-1.5,0.6-2.2c2.5-7.5,7.3-14,13.6-18.6
		c-0.2-0.9-0.3-1.7-0.3-2.6c-0.2-5.7,2.6-10.9,7-13.9c1.8-1.3,6.2-2.7,12.4-1.6c-5.7-2-11.9-3.1-18.4-2.9c-11,0.4-21,4.3-29,10.6
		c-3.5,6-5.5,13-5.2,20.4C287.8,282.1,290.5,289.3,294.8,295.2z"/>
	
		<linearGradient id="SVGID_4_" gradientUnits="userSpaceOnUse" x1="299.985" y1="137.6971" x2="299.985" y2="51.5429" gradientTransform="matrix(1 0 0 1 0 202.1599)">
		<stop  offset="0" style="stop-color:#B0D0EF"/>
		<stop  offset="1" style="stop-color:#283385"/>
	</linearGradient>
	<path class="st3" d="M306.8,339.5c6.1,1.1,10.5-0.3,12.4-1.6c4.4-3,7.2-8.2,7-13.9c0-0.9-0.1-1.8-0.3-2.6
		c-1.1-5.6-5.1-10.1-10.2-12c-0.7-0.3-1.5-0.5-2.2-0.6c-7.5-2.5-14-7.3-18.6-13.5c-4.3-5.9-7-13.1-7.3-21
		c-0.3-7.4,1.7-14.4,5.2-20.4c-7.3,5.7-12.9,13.5-16.1,22.3c-2,5.7-3.1,11.9-2.9,18.3C274.6,315.4,288.2,332.9,306.8,339.5z"/>
</g>
</svg>
